<?xml version="1.0" encoding="UTF-8"?>
<svg id="Layer_2" data-name="Layer 2" xmlns="http://www.w3.org/2000/svg" viewBox="0 0 1130.9 363.58">
  <defs>
    <style>
      .cls-1 {
        fill: #b53339;
      }

      .cls-2 {
        fill: #fff;
      }
    </style>
  </defs>
  <g id="Isolation_Mode" data-name="Isolation Mode">
    <g>
      <g id="JB_logo" data-name="JB logo">
        <path id="Path_1" data-name="Path 1" class="cls-2" d="M18.85,160.59h22.31v119.78c.48,16.76-12.72,30.74-29.48,31.22-.97.03-1.94,0-2.91-.06H0v-21.08h6.34c7.67,0,12.52-3.48,12.52-11.82v-118.05ZM18.85,115.64h22.31v22.36h-22.31v-22.36Z"/>
        <path id="Path_2" data-name="Path 2" class="cls-2" d="M77.97,206.21c.46-16.88,10.25-25.89,23.43-25.89s22.82,9.05,23.48,25.89h-46.91ZM147.22,224.62v-18.42c.99-24.9-18.4-45.89-43.3-46.88-.84-.03-1.68-.04-2.52-.03-21.47,0-45.78,14.01-45.78,57.2,0,45.57,26.5,56.55,49.34,56.55,15.39.32,30.12-6.28,40.11-17.99l-16.29-13.79c-6.36,6.62-15.07,10.46-24.24,10.69-13.69,1-25.61-9.29-26.61-22.98-.11-1.46-.08-2.92.07-4.37h69.23Z"/>
        <path id="Path_3" data-name="Path 3" class="cls-2" d="M164.93,126.89h22.33v33.71h16.29v17.08h-16.29v64.63c0,6.17,2.43,8.33,7.92,8.33h8.33v21.08h-11.61c-14.03.89-26.12-9.76-27-23.79-.08-1.2-.07-2.4.03-3.59v-66.66h-11.21v-17.08h11.21v-33.71Z"/>
        <path id="Path_4" data-name="Path 4" class="cls-2" d="M277.79,202.47c12.95-1.11,24.34,8.49,25.45,21.43,1.11,12.95-8.49,24.34-21.43,25.45-1.34.11-2.68.11-4.02,0h-36.41v-46.89h36.41ZM217.8,271.74h65.65c23.56.44,43.02-18.3,43.46-41.86.02-.81,0-1.61-.02-2.42,1.06-16.48-9.54-31.45-25.43-35.93v-.43c14.23-4.9,23.57-18.55,22.98-33.59,0-24.43-15.81-41.83-46.27-41.83h-60.4l.04,156.06ZM275.6,136.72c12.19-1.63,23.39,6.93,25.02,19.11.14,1.08.21,2.17.19,3.27,0,12.28-8.1,22.33-25.21,22.33h-34.21v-44.71h34.21Z"/>
        <path id="Path_5" data-name="Path 5" class="cls-2" d="M339.73,115.68h22.31v127.36c0,5.02,2.86,7.6,8.33,7.6h7.7v21.1h-9.86c-16.19,0-28.5-7-28.5-26.96l.02-129.1Z"/>
        <path id="Path_6" data-name="Path 6" class="cls-2" d="M387.53,160.61h22.38v66.16c-.99,12.16,8.07,22.82,20.23,23.81,12.16.99,22.82-8.07,23.81-20.23.1-1.19.1-2.38,0-3.57v-66.16h22.34v111.12h-22.34v-11.85h-.43c-6.99,8.66-17.64,13.54-28.76,13.19-20.62-.05-37.3-16.81-37.25-37.43,0-.38,0-.76.02-1.14v-73.89Z"/>
        <path id="Path_7" data-name="Path 7" class="cls-2" d="M510.6,206.21c.44-16.88,10.31-25.89,23.53-25.89s22.75,9.05,23.44,25.89h-46.97ZM579.88,224.62v-18.42c1.01-24.88-18.34-45.87-43.22-46.87-.85-.03-1.7-.04-2.55-.03-21.48,0-45.89,14.01-45.89,57.2,0,45.57,26.58,56.55,49.36,56.55,15.39.34,30.11-6.27,40.09-17.99l-16.19-13.79c-6.37,6.63-15.11,10.47-24.3,10.69-13.71,1-25.64-9.31-26.64-23.02-.1-1.44-.08-2.89.06-4.33h69.29Z"/>
        <path id="Path_8" data-name="Path 8" class="cls-2" d="M588.04,158.67c5.45.05,9.84,4.5,9.79,9.95-.05,5.45-4.5,9.84-9.95,9.79-5.39-.04-9.75-4.4-9.79-9.79,0-5.5,4.46-9.95,9.95-9.95h0M588.04,176.49c4.37.09,7.98-3.39,8.06-7.75.09-4.37-3.39-7.98-7.75-8.06-4.37-.08-7.98,3.39-8.06,7.75,0,.05,0,.1,0,.15-.2,4.16,3.01,7.7,7.17,7.9.19,0,.39.01.58,0M584.27,162.49h4.39c2.64,0,3.93,1.15,3.93,3.52.18,1.66-1.02,3.16-2.69,3.34-.08,0-.15.01-.23.02l3.33,4.66h-2.32l-3.28-4.63h-1.17v4.63h-1.97v-11.54ZM586.24,167.61h1.34c1.57,0,3.04-.14,3.04-1.59s-1.29-1.68-2.57-1.68h-1.81v3.28Z"/>
      </g>
      <rect class="cls-2" x="675.4" y="82.08" width="11.08" height="223.61"/>
      <g>
        <path class="cls-2" d="M1093.9,215.28c-13.2-9.35-29.1-11.43-44.48-13.51-29.41-3.85-52.59-6.86-55.91-54.98-4.88-69.95-6.55-86.05-24.22-98.84-.62-4.88-4.16-32.84-4.16-32.84-1.14-9.46-9.87-16.21-19.33-14.97l-53.73,6.76c-4.57.52-8.63,2.91-11.54,6.55-1.87,2.49-3.12,5.3-3.43,8.31-7.48-.42-14.76,4.05-17.36,11.43,0,0-9.25,26.09-11.02,30.97-10.7,4.78-19.33,19.95-28.89,50.51l-5.4,17.67c-10.5,34.71-18.92,62.15-34.61,79.09-13.51,14.45-20.79,30.24-20.79,44.69,0,4.37.62,8.63,1.97,12.58,4.05,12.06,16.11,27.75,51.03,34.09,19.12,3.33,41.36,17.04,62.77,30.35,14.76,9.15,30.56,18.92,44.79,24.84,9.15,3.85,24.84,10.6,68.59-.42,2.29-.52,7.07-2.49,8.63-10.08.31-1.56.52-3.43.52-5.4,0-14.76-10.29-40.43-38.14-64.23,19.85,1.97,42.2,6.76,58.62,12.47,27.23,9.56,78.36,16.11,107.78-5.2,2.39-1.56,5.09-5.09,5.3-11.54,0-13.41-11.22-40.12-37-58.3"/>
        <path class="cls-1" d="M1090.15,220.58c-35.23-25.05-97.49,7.17-103.2-73.37-5.09-73.17-6.96-84.39-23.8-95.62l-4.57-35.75c-.73-5.82-6.13-10.08-11.95-9.25l-53.73,6.76c-5.2.62-9.04,4.88-9.35,9.87,1.87.73,5.3,1.87,9.46,3.33l-.42-3.43c-.1-.94.52-1.77,1.46-1.87.94-.1,1.77.52,1.87,1.46l.62,5.09c2.29.83,4.78,1.66,7.28,2.6l-1.04-8c-.1-1.25.73-2.29,1.87-2.39,1.14-.1,2.29.73,2.39,1.87l1.25,10.19c2.18.73,4.26,1.56,6.34,2.29l-1.56-12.68c-.21-1.46.83-2.81,2.29-2.91,1.46-.21,2.81.83,3.01,2.29l1.87,15.28c2.08.73,4.05,1.46,5.72,2.08l-2.29-17.98c-.21-1.46.83-2.81,2.29-2.91,1.46-.21,2.81.83,2.91,2.29l2.6,20.68c.73.31,1.25.42,1.25.42,1.97.73,3.74,1.77,5.2,3.01l-3.12-25.26c-.1-1.14.73-2.29,1.87-2.39,1.14-.1,2.29.73,2.39,1.87l4.16,33.57c.62,1.77.94,3.64.94,5.51s-.31,3.85-1.04,5.82c0,0-9.35,26.4-11.12,31.18,2.08,4.16,3.01,8.42,3.01,12.89,0,13.2-7.79,27.44-14.97,40.53-3.01,5.51-5.92,10.81-8.11,15.69-11.02,26.92-16.32,43.55-16.32,54.88,0,6.03,1.46,10.5,4.47,14.34.1-7.17,1.46-12.68,2.18-15.38,7.07,2.29,28.06,8.83,38.56,11.12,0,0-.83,21.62,1.77,37.1,1.25.94,2.29,1.87,3.01,2.49,1.35.94,2.7,1.87,4.05,2.91,23.7,1.35,51.86,7.28,70.05,13.61,28.27,9.87,75.97,14.55,101.96-4.47,7.59-4.68-1.66-38.14-31.49-59.34M952.65,55.65c-.94.1-1.77-.52-1.87-1.46l-4.68-37.62c-.1-.94.52-1.77,1.46-1.87.94-.1,1.77.52,1.87,1.46l4.68,37.62c.1.83-.52,1.77-1.46,1.87M1114.89,273.07c-9.04,6.03-21.2,9.04-34.09,9.98-2.81.1-4.57-.94-5.2-3.12l-9.35-25.36c-.94-2.08-1.04-4.05,1.87-5.51,0,0,19.12-8.31,21.31-9.46,2.18-1.14,4.78-3.22,7.38-.62,12.78,13.51,18.08,28.27,18.08,33.99.1-.1,0,0,0,.1"/>
        <path class="cls-1" d="M942.78,273.49c-2.6-2.08-17.77-15.17-39.29-29.72-21.51-14.55-16.52-36.27,2.81-83.46,9.46-21.31,31.08-47.91,18.81-65.89l12.06-33.99c1.97-5.61-.94-11.74-6.55-13.72l-51.03-18.08c-5.61-1.97-11.74.94-13.72,6.55l-11.95,34.09c-9.35,2.08-17.88,15.8-27.75,47.29-13.41,43.03-22.03,78.26-41.47,99.25-27.75,29.83-30.87,69.84,28.48,80.55,34.09,5.92,74.31,41.16,108.4,55.39,8.21,3.43,21.51,10.39,65.06-.52,9.46-1.87,5.82-43.24-43.86-77.74M809.75,285.96c-18.5-4.26-30.04-11.85-33.57-22.35-3.53-10.7,1.14-24.74,12.58-38.35,12.99,4.99,23.9,11.02,32.01,16.52-5.72,12.16-9.67,27.44-11.02,44.17M927.92,54.5c.83.31,1.35,1.25,1.04,2.18l-12.78,35.65c-.31.83-1.25,1.35-2.18,1.04-.83-.31-1.35-1.25-1.04-2.18l12.78-35.65c.31-.94,1.25-1.35,2.18-1.04M917.73,50.87c1.14.42,1.77,1.66,1.35,2.81l-12.47,34.71c-.42,1.14-1.66,1.77-2.81,1.35-1.14-.42-1.66-1.66-1.35-2.81l12.47-34.82c.42-1.04,1.66-1.66,2.81-1.25M907.55,47.23c1.35.52,2.08,1.97,1.56,3.43l-12.16,33.88c-.52,1.35-1.97,2.08-3.43,1.66-1.35-.52-2.08-1.97-1.56-3.43l12.06-33.88c.62-1.46,2.18-2.18,3.53-1.66M863.27,75.19c-.83-.31-1.35-1.25-1.04-2.18l12.68-35.65c.31-.83,1.25-1.35,2.18-1.04.83.31,1.35,1.25,1.04,2.18l-12.78,35.65c-.31.94-1.25,1.35-2.08,1.04M873.46,78.82c-1.14-.42-1.77-1.66-1.35-2.81l12.37-34.71c.42-1.14,1.66-1.77,2.81-1.35,1.14.42,1.66,1.66,1.35,2.81l-12.47,34.82c-.42,1.04-1.66,1.66-2.7,1.25M883.54,82.46c-1.35-.52-2.08-1.97-1.56-3.43l12.06-33.88c.52-1.35,1.97-2.08,3.43-1.56,1.35.52,2.08,1.97,1.56,3.43l-12.06,33.88c-.52,1.35-1.97,2.08-3.43,1.56M981.34,342.7c-16.11,3.85-27.33,4.99-35.54,4.88-2.91.42-5.3-1.04-5.82-4.47l-3.01-26.5c.1-2.7.94-4.99,4.26-5.09,7.9.1,17.36-.73,20.27-1.66,4.37-1.46,5.51-.94,6.03-.21,10.7,14.34,13.93,26.61,13.93,32.32,0,.31-.1.52-.1.73"/>
        <polygon class="cls-1" points="1077.79 302.17 1079.35 302.17 1079.35 306.64 1080.38 306.64 1080.38 302.17 1082.05 302.17 1082.05 301.34 1077.79 301.34 1077.79 302.17"/>
        <polygon class="cls-1" points="1086 305.08 1084.54 301.34 1083.09 301.34 1083.09 306.64 1084.02 306.64 1084.02 302.48 1084.13 302.48 1085.69 306.64 1086.41 306.64 1087.97 302.48 1087.97 302.48 1087.97 306.64 1088.91 306.64 1088.91 301.34 1087.45 301.34 1086 305.08"/>
      </g>
    </g>
  </g>
</svg>