<?xml version="1.0" encoding="UTF-8"?>
<svg id="Layer_2" data-name="Layer 2" xmlns="http://www.w3.org/2000/svg" viewBox="0 0 1046.24 77.41">
  <defs>
    <style>
      .cls-1 {
        fill: #fff;
      }
    </style>
  </defs>
  <g id="Layer_2-2" data-name="Layer 2">
    <g id="Layer_1-2" data-name="Layer 1-2">
      <path class="cls-1" d="M645.83,61.8c1.32,0,2.64-.14,3.91-.5,7.5-2.11,13-9,13-17.18,0-9.86-7.99-17.85-17.85-17.85-1.35,0-2.66.15-3.92.44.13-1,.2-2.01.2-3.04,0-12.94-10.49-23.43-23.43-23.43-10.47,0-19.33,6.87-22.33,16.34-2.54-.94-5.29-1.46-8.16-1.46-9.4,0-17.5,6.54-21.23,14.53-.72-.09-1.45-.14-2.19-.14-9.86-.01-17.85,7.98-17.85,17.84,0,.27,0,.55.02.82.37,8.24,7.4,14.62,15.65,14.62l84.18-1h0Z"/>
      <path class="cls-1" d="M760.34,77.41c.83,0,1.67-.09,2.47-.31,4.73-1.33,8.2-5.68,8.2-10.84,0-6.22-5.04-11.26-11.26-11.26-.85,0-1.68.1-2.47.28.08-.63.13-1.27.13-1.92,0-8.16-6.62-14.78-14.78-14.78-6.6,0-12.19,4.33-14.09,10.3-1.6-.6-3.34-.92-5.15-.92-5.93,0-11.04,3.49-13.39,8.53-.45-.06-.92-.09-1.38-.09-6.22,0-11.26,5.04-11.26,11.26,0,.17,0,.35,0,.52.24,5.2,4.67,9.22,9.87,9.22h53.1Z"/>
      <path class="cls-1" d="M921.06,61.8c1.32,0,2.64-.14,3.91-.5,7.5-2.11,13-9,13-17.18,0-9.86-7.99-17.85-17.85-17.85-1.35,0-2.66.15-3.92.44.13-1,.2-2.01.2-3.04,0-12.94-10.49-23.43-23.43-23.43-10.47,0-19.33,6.87-22.33,16.34-2.54-.94-5.29-1.46-8.16-1.46-9.4,0-17.5,5.54-21.23,13.53-.72-.09-1.45-.14-2.19-.14-9.86,0-17.85,7.99-17.85,17.85,0,.27,0,.55.02.82.37,8.24,7.4,14.62,15.65,14.62h84.18Z"/>
      <path class="cls-1" d="M1035.57,77.41c.83,0,1.67-.09,2.47-.31,4.73-1.33,8.2-5.68,8.2-10.84,0-6.22-5.04-11.26-11.26-11.26-.85,0-1.68.1-2.47.28.08-.63.13-1.27.13-1.92,0-8.16-6.62-14.78-14.78-14.78-6.6,0-12.19,4.33-14.09,10.3-1.6-.6-3.34-.92-5.15-.92-5.93,0-11.04,3.49-13.39,8.53-.45-.06-.92-.09-1.38-.09-6.22,0-11.26,5.04-11.26,11.26,0,.17,0,.35.01.52.24,5.2,4.67,9.22,9.87,9.22h53.1Z"/>
    </g>
    <g id="Layer_1-2-2" data-name="Layer 1-2">
      <path class="cls-1" d="M99.85,61.56c1.32,0,2.64-.14,3.91-.5,7.5-2.11,13-9,13-17.18,0-9.86-7.99-17.85-17.85-17.85-1.35,0-2.66.15-3.92.44.13-1,.2-2.01.2-3.04,0-12.94-10.49-23.43-23.43-23.43-10.47,0-19.33,6.87-22.33,16.34-2.54-.94-5.29-1.46-8.16-1.46-9.4,0-17.5,6.54-21.23,14.53-.72-.09-1.45-.14-2.19-.14-9.86-.01-17.85,7.98-17.85,17.84,0,.27,0,.55.02.82.37,8.24,7.4,14.62,15.65,14.62l84.18-1h0Z"/>
      <path class="cls-1" d="M214.36,77.17c.83,0,1.67-.09,2.47-.31,4.73-1.33,8.2-5.68,8.2-10.84,0-6.22-5.04-11.26-11.26-11.26-.85,0-1.68.1-2.47.28.08-.63.13-1.27.13-1.92,0-8.16-6.62-14.78-14.78-14.78-6.6,0-12.19,4.33-14.09,10.3-1.6-.6-3.34-.92-5.15-.92-5.93,0-11.04,3.49-13.39,8.53-.45-.06-.92-.09-1.38-.09-6.22,0-11.26,5.04-11.26,11.26,0,.17,0,.35,0,.52.24,5.2,4.67,9.22,9.87,9.22h53.1Z"/>
      <path class="cls-1" d="M375.08,61.56c1.32,0,2.64-.14,3.91-.5,7.5-2.11,13-9,13-17.18,0-9.86-7.99-17.85-17.85-17.85-1.35,0-2.66.15-3.92.44.13-1,.2-2.01.2-3.04,0-12.94-10.49-23.43-23.43-23.43-10.47,0-19.33,6.87-22.33,16.34-2.54-.94-5.29-1.46-8.16-1.46-9.4,0-17.5,5.54-21.23,13.53-.72-.09-1.45-.14-2.19-.14-9.86,0-17.85,7.99-17.85,17.85,0,.27,0,.55.02.82.37,8.24,7.4,14.62,15.65,14.62h84.18Z"/>
      <path class="cls-1" d="M489.59,77.17c.83,0,1.67-.09,2.47-.31,4.73-1.33,8.2-5.68,8.2-10.84,0-6.22-5.04-11.26-11.26-11.26-.85,0-1.68.1-2.47.28.08-.63.13-1.27.13-1.92,0-8.16-6.62-14.78-14.78-14.78-6.6,0-12.19,4.33-14.09,10.3-1.6-.6-3.34-.92-5.15-.92-5.93,0-11.04,3.49-13.39,8.53-.45-.06-.92-.09-1.38-.09-6.22,0-11.26,5.04-11.26,11.26,0,.17,0,.35.01.52.24,5.2,4.67,9.22,9.87,9.22h53.1Z"/>
    </g>
  </g>
</svg>