<?xml version="1.0" encoding="UTF-8"?>
<svg id="Layer_2" data-name="Layer 2" xmlns="http://www.w3.org/2000/svg" viewBox="0 0 427.2 225.84">
  <defs>
    <style>
      .cls-1 {
        fill: #fff;
      }
    </style>
  </defs>
  <g id="Layer_1-2" data-name="Layer 1">
    <path class="cls-1" d="M65.3,103.4c2.72,0,5.4.19,8.03.51,13.65-29.23,43.29-49.49,77.68-49.49,10.5,0,20.56,1.9,29.86,5.35C191.86,25.12,224.28,0,262.58,0c47.34,0,85.71,38.37,85.71,85.71,0,3.77-.27,7.48-.74,11.12,4.62-1.04,9.42-1.6,14.35-1.6,36.07,0,65.3,29.24,65.3,65.3s-27.78,63.81-62.58,65.24v.07H40.82v-.64h-8.24C13.11,213.9,0,192.84,0,168.7c0-36.07,29.24-65.3,65.3-65.3Z"/>
  </g>
</svg>